<?xml version="1.0" encoding="UTF-8" standalone="no"?>
<?xml-stylesheet href="
  data:text/css,
  svg text {
    font-family: 'Roboto', sans-serif;
    font-size: 12px;
  }

    %23node4:hover ~ %23edge4 text { fill: %231976d2; }
  %23node4:hover ~ %23edge4 path { stroke: %231976d2; stroke-width: .2em; }
  %23node4:hover ~ %23edge4 polygon { fill: %231976d2; stroke: %231976d2; stroke-width: .2em; }

  %23node5:hover ~ %23edge4 text { fill: %23d32f2f; }
  %23node5:hover ~ %23edge4 path { stroke: %23d32f2f; stroke-width: .2em; }
  %23node5:hover ~ %23edge4 polygon { fill: %23d32f2f; stroke: %23d32f2f; stroke-width: .2em; }

  %23node3:hover ~ %23edge3 text { fill: %231976d2; }
  %23node3:hover ~ %23edge3 path { stroke: %231976d2; stroke-width: .2em; }
  %23node3:hover ~ %23edge3 polygon { fill: %231976d2; stroke: %231976d2; stroke-width: .2em; }

  %23node4:hover ~ %23edge3 text { fill: %23d32f2f; }
  %23node4:hover ~ %23edge3 path { stroke: %23d32f2f; stroke-width: .2em; }
  %23node4:hover ~ %23edge3 polygon { fill: %23d32f2f; stroke: %23d32f2f; stroke-width: .2em; }

  %23node2:hover ~ %23edge2 text { fill: %231976d2; }
  %23node2:hover ~ %23edge2 path { stroke: %231976d2; stroke-width: .2em; }
  %23node2:hover ~ %23edge2 polygon { fill: %231976d2; stroke: %231976d2; stroke-width: .2em; }

  %23node3:hover ~ %23edge2 text { fill: %23d32f2f; }
  %23node3:hover ~ %23edge2 path { stroke: %23d32f2f; stroke-width: .2em; }
  %23node3:hover ~ %23edge2 polygon { fill: %23d32f2f; stroke: %23d32f2f; stroke-width: .2em; }

  %23node1:hover ~ %23edge1 text { fill: %231976d2; }
  %23node1:hover ~ %23edge1 path { stroke: %231976d2; stroke-width: .2em; }
  %23node1:hover ~ %23edge1 polygon { fill: %231976d2; stroke: %231976d2; stroke-width: .2em; }

  %23node2:hover ~ %23edge1 text { fill: %23d32f2f; }
  %23node2:hover ~ %23edge1 path { stroke: %23d32f2f; stroke-width: .2em; }
  %23node2:hover ~ %23edge1 polygon { fill: %23d32f2f; stroke: %23d32f2f; stroke-width: .2em; }

  %23clust1:hover ~ %23edge1 text { fill: %23d32f2f; }
  %23clust1:hover ~ %23edge1 path { stroke: %23d32f2f; stroke-width: .2em; }
  %23clust1:hover ~ %23edge1 polygon { fill: %23d32f2f; stroke: %23d32f2f; stroke-width: .2em; }

" type="text/css"?>
<!DOCTYPE svg PUBLIC "-//W3C//DTD SVG 1.1//EN"
 "http://www.w3.org/Graphics/SVG/1.1/DTD/svg11.dtd">
<!-- Generated by graphviz version 2.42.4 (0)
 -->
<!-- Title: G Pages: 1 -->
<svg width="328pt" height="453pt"
 viewBox="0.00 0.00 328.00 452.69" xmlns="http://www.w3.org/2000/svg" xmlns:xlink="http://www.w3.org/1999/xlink">
<g id="graph0" class="graph" transform="scale(1 1) rotate(0) translate(4 448.69)">
<title>G</title>
<g id="a_graph0"><a xlink:title=" ">
<polygon fill="white" stroke="transparent" points="-4,4 -4,-448.69 324,-448.69 324,4 -4,4"/>
<text text-anchor="start" x="79" y="-416.49" font-family="Times,serif" font-weight="bold" font-size="14.00">Computation main.4</text>
</a>
</g>
<g id="clust1" class="cluster">
<title>cluster_715514256</title>
<g id="a_clust1"><a xlink:title=" ">
<path fill="#f5f5f5" stroke="#c2c2c2" stroke-width="2" d="M20,-104.69C20,-104.69 300,-104.69 300,-104.69 306,-104.69 312,-110.69 312,-116.69 312,-116.69 312,-352.69 312,-352.69 312,-358.69 306,-364.69 300,-364.69 300,-364.69 20,-364.69 20,-364.69 14,-364.69 8,-358.69 8,-352.69 8,-352.69 8,-116.69 8,-116.69 8,-110.69 14,-104.69 20,-104.69"/>
<text text-anchor="start" x="16" y="-350.49" font-family="Times,serif" font-size="14.00">Fused expression for </text>
<text text-anchor="start" x="171" y="-350.49" font-family="Times,serif" font-weight="bold" font-size="14.00">slice_sine_fusion</text>
<text text-anchor="start" x="120.5" y="-336.49" font-family="Times,serif" font-size="14.00">loop fusion</text>
<text text-anchor="start" x="117" y="-322.49" font-family="Times,serif" font-size="14.00">kind=kLoop</text>
</a>
</g>
</g>
<!-- 717195728 -->
<g id="node1" class="node">
<title>717195728</title>
<g id="a_node1"><a xlink:title="x">
<polygon fill="#ffe0b2" stroke="#cbae82" points="217,-408.69 103,-408.69 103,-372.69 217,-372.69 217,-408.69"/>
<text text-anchor="start" x="111" y="-394.49" font-family="Times,serif" font-weight="bold" font-size="14.00">Parameter 0</text>
<text text-anchor="start" x="134" y="-380.49" font-family="Times,serif" font-size="14.00">f32[20]</text>
</a>
</g>
</g>
<!-- 716522064 -->
<g id="node2" class="node">
<title>716522064</title>
<polygon fill="#ffe0b2" stroke="#cbae82" points="217,-306.69 103,-306.69 103,-270.69 217,-270.69 217,-306.69"/>
<text text-anchor="start" x="111" y="-292.49" font-family="Times,serif" font-weight="bold" font-size="14.00">Parameter 0</text>
<text text-anchor="start" x="134" y="-278.49" font-family="Times,serif" font-size="14.00">f32[20]</text>
</g>
<!-- 717195728&#45;&gt;716522064 -->
<g id="edge1" class="edge">
<title>717195728&#45;&gt;716522064</title>
<g id="a_edge1"><a xlink:title="Arg_0.1 &#45;&gt; param_0.1">
<path fill="none" stroke="black" d="M160,-372.27C160,-357.07 160,-334.76 160,-317.16"/>
<polygon fill="none" stroke="black" points="163.5,-316.91 160,-306.91 156.5,-316.91 163.5,-316.91"/>
</a>
</g>
</g>
<!-- 712280064 -->
<g id="node3" class="node">
<title>712280064</title>
<g id="a_node3"><a xlink:title="jit(simple_function)/jit(main)/slice&#10;source: /path/to/code/script.py:25">
<polygon fill="white" stroke="#9e9e9e" points="216,-234.69 104,-234.69 104,-184.69 216,-184.69 216,-234.69"/>
<text text-anchor="start" x="134.5" y="-220.49" font-family="Times,serif" font-weight="bold" font-size="14.00">slice.0</text>
<text text-anchor="start" x="112" y="-206.49" font-family="Times,serif" font-size="14.00">slice={[0:3]}</text>
<text text-anchor="start" x="138.5" y="-192.49" font-family="Times,serif" font-size="14.00">f32[3]</text>
</a>
</g>
</g>
<!-- 716522064&#45;&gt;712280064 -->
<g id="edge2" class="edge">
<title>716522064&#45;&gt;712280064</title>
<g id="a_edge2"><a xlink:title="param_0.1 &#45;&gt; slice.0">
<path fill="none" stroke="black" d="M160,-270.6C160,-263.03 160,-253.82 160,-244.93"/>
<polygon fill="none" stroke="black" points="163.5,-244.74 160,-234.74 156.5,-244.74 163.5,-244.74"/>
</a>
</g>
</g>
<!-- 714765440 -->
<g id="node4" class="node">
<title>714765440</title>
<g id="a_node4"><a xlink:title="jit(simple_function)/jit(main)/sin&#10;source: /path/to/code/script.py:25">
<polygon fill="white" stroke="#9e9e9e" points="192,-148.69 128,-148.69 128,-112.69 192,-112.69 192,-148.69"/>
<text text-anchor="start" x="136" y="-134.49" font-family="Times,serif" font-weight="bold" font-size="14.00">sine.0</text>
<text text-anchor="start" x="138.5" y="-120.49" font-family="Times,serif" font-size="14.00">f32[3]</text>
</a>
</g>
</g>
<!-- 712280064&#45;&gt;714765440 -->
<g id="edge3" class="edge">
<title>712280064&#45;&gt;714765440</title>
<g id="a_edge3"><a xlink:title="slice.0 &#45;&gt; sine.0">
<path fill="none" stroke="black" d="M160,-184.33C160,-176.36 160,-167.46 160,-159.28"/>
<polygon fill="none" stroke="black" points="163.5,-159.07 160,-149.07 156.5,-159.07 163.5,-159.07"/>
</a>
</g>
</g>
<!-- cluster_716841552 -->
<g id="node5" class="node">
<title>cluster_716841552</title>
<g id="a_node5"><a xlink:title=" ">
<ellipse fill="#bcaaa4" stroke="#8c7b75" cx="160" cy="-38.35" rx="38.19" ry="38.19"/>
<text text-anchor="start" x="138.5" y="-34.65" font-family="Times,serif" font-size="14.00">ROOT</text>
</a>
</g>
</g>
<!-- 714765440&#45;&gt;cluster_716841552 -->
<g id="edge4" class="edge">
<title>714765440&#45;&gt;cluster_716841552</title>
<g id="a_edge4"><a xlink:title=" ">
<path fill="none" stroke="black" d="M160,-112.27C160,-104.97 160,-96.09 160,-87.07"/>
<polygon fill="black" stroke="black" points="163.5,-86.91 160,-76.91 156.5,-86.91 163.5,-86.91"/>
</a>
</g>
</g>
</g>
</svg>
